<svg aria-hidden="true" style="position: absolute; width: 0; height: 0; overflow: hidden;" version="1.1" xmlns="http://www.w3.org/2000/svg" xmlns:xlink="http://www.w3.org/1999/xlink">
<defs>
<symbol id="icon-facebook" viewBox="0 0 17 32">
<path  d="M10.336 31.988h-6.89v-15.99h-3.444v-5.512h3.444v-3.308c0-4.495 1.945-7.171 7.466-7.171h4.598v5.512h-2.872c-2.152 0-2.294 0.771-2.294 2.21l-0.008 2.757h5.208l-0.61 5.512h-4.598v15.99z"></path>
</symbol>
<symbol id="icon-linkedin" viewBox="0 0 34 32">
<path  d="M31.178 30.338h-28.672c-1.374 0-2.488-0.975-2.488-2.178v-26.001c0-1.201 1.113-2.176 2.488-2.176h28.672c1.373 0 2.486 0.975 2.486 2.176v26.001c0 1.203-1.113 2.178-2.486 2.178zM5.849 25.337h4.955v-13.704h-4.955v13.704zM8.36 5.027c-1.696 0-2.803 1.022-2.803 2.368 0 1.314 1.075 2.368 2.737 2.368h0.032c1.728 0 2.803-1.054 2.803-2.368-0.030-1.346-1.075-2.368-2.769-2.368zM28.67 17.48c0-4.211-2.445-6.169-5.704-6.169-2.631 0-3.806 1.329-4.465 2.264v-1.942h-4.955c0.066 1.287 0 13.704 0 13.704h4.955v-7.653c0-0.408 0.032-0.819 0.163-1.11 0.357-0.819 1.174-1.666 2.541-1.666 1.794 0 2.509 1.256 2.509 3.099v7.33h4.955v-7.857zM18.467 13.62c0.010-0.015 0.024-0.030 0.034-0.045v0.045h-0.034z"></path>
</symbol>
<symbol id="icon-pinterest" viewBox="0 0 25 32">
<path  d="M13.198 0c-8.773 0-13.196 6.261-13.196 11.484 0 3.161 1.202 5.973 3.781 7.022 0.423 0.172 0.802 0.005 0.924-0.46 0.085-0.322 0.288-1.136 0.377-1.476 0.124-0.46 0.076-0.622-0.265-1.024-0.745-0.873-1.22-2.004-1.22-3.605 0-4.645 3.492-8.804 9.092-8.804 4.958 0 7.682 3.017 7.682 7.044 0 5.301-2.356 9.774-5.854 9.774-1.931 0-3.376-1.591-2.914-3.541 0.556-2.327 1.63-4.841 1.63-6.523 0-1.504-0.811-2.759-2.491-2.759-1.973 0-3.559 2.034-3.559 4.757 0 1.737 0.588 2.91 0.588 2.91s-2.021 8.523-2.375 10.016c-0.706 2.972-0.105 6.617-0.055 6.987 0.030 0.217 0.311 0.268 0.439 0.105 0.181-0.238 2.533-3.127 3.333-6.016 0.226-0.818 1.298-5.052 1.298-5.052 0.642 1.218 2.517 2.292 4.51 2.292 5.936 0 9.963-5.388 9.963-12.599 0-5.452-4.638-10.532-11.689-10.532z"></path>
</symbol>
<symbol id="icon-twitter" viewBox="0 0 42 32">
<path  d="M42.016 3.792c-1.546 0.644-3.208 1.074-4.95 1.27 1.78-1 3.146-2.584 3.79-4.468-1.668 0.924-3.512 1.596-5.476 1.96-1.57-1.572-3.812-2.552-6.29-2.552-4.76 0-8.622 3.618-8.622 8.078 0 0.634 0.076 1.252 0.224 1.842-7.164-0.338-13.516-3.554-17.768-8.44-0.742 1.194-1.166 2.58-1.166 4.062 0 2.8 1.522 5.276 3.834 6.724-1.412-0.044-2.74-0.406-3.904-1.012 0 0.036 0 0.066 0 0.104 0 3.914 2.97 7.178 6.914 7.92-0.722 0.184-1.486 0.28-2.27 0.28-0.556 0-1.096-0.048-1.622-0.14 1.096 3.206 4.28 5.544 8.052 5.61-2.95 2.166-6.666 3.456-10.706 3.456-0.696 0-1.382-0.038-2.056-0.112 3.814 2.29 8.346 3.63 13.214 3.63 15.856 0 24.526-12.312 24.526-22.986 0-0.352-0.010-0.698-0.026-1.046 1.684-1.14 3.146-2.562 4.302-4.18z"></path>
</symbol>
</defs>
</svg>
