<svg aria-hidden="true" style="position:absolute;width:0;height:0" xmlns="http://www.w3.org/2000/svg" overflow="hidden"><defs><symbol id="icon-facebook" viewBox="0 0 17 32"><path d="M10.336 31.988h-6.89v-15.99H.002v-5.512h3.444V7.178c0-4.495 1.945-7.171 7.466-7.171h4.598v5.512h-2.872c-2.152 0-2.294.771-2.294 2.21l-.008 2.757h5.208l-.61 5.512h-4.598v15.99z"/></symbol><symbol id="icon-linkedin" viewBox="0 0 34 32"><path d="M31.178 30.338H2.506c-1.374 0-2.488-.975-2.488-2.178V2.159C.018.958 1.131-.017 2.506-.017h28.672c1.373 0 2.486.975 2.486 2.176V28.16c0 1.203-1.113 2.178-2.486 2.178zM5.849 25.337h4.955V11.633H5.849v13.704zM8.36 5.027c-1.696 0-2.803 1.022-2.803 2.368 0 1.314 1.075 2.368 2.737 2.368h.032c1.728 0 2.803-1.054 2.803-2.368-.03-1.346-1.075-2.368-2.769-2.368zM28.67 17.48c0-4.211-2.445-6.169-5.704-6.169-2.631 0-3.806 1.329-4.465 2.264v-1.942h-4.955c.066 1.287 0 13.704 0 13.704h4.955v-7.653c0-.408.032-.819.163-1.11.357-.819 1.174-1.666 2.541-1.666 1.794 0 2.509 1.256 2.509 3.099v7.33h4.955V17.48zm-10.203-3.86c.01-.015.024-.03.034-.045v.045h-.034z"/></symbol><symbol id="icon-pinterest" viewBox="0 0 25 32"><path d="M13.198 0C4.425 0 .002 6.261.002 11.484c0 3.161 1.202 5.973 3.781 7.022.423.172.802.005.924-.46.085-.322.288-1.136.377-1.476.124-.46.076-.622-.265-1.024-.745-.873-1.22-2.004-1.22-3.605 0-4.645 3.492-8.804 9.092-8.804 4.958 0 7.682 3.017 7.682 7.044 0 5.301-2.356 9.774-5.854 9.774-1.931 0-3.376-1.591-2.914-3.541.556-2.327 1.63-4.841 1.63-6.523 0-1.504-.811-2.759-2.491-2.759-1.973 0-3.559 2.034-3.559 4.757 0 1.737.588 2.91.588 2.91L5.398 24.815c-.706 2.972-.105 6.617-.055 6.987.03.217.311.268.439.105.181-.238 2.533-3.127 3.333-6.016.226-.818 1.298-5.052 1.298-5.052.642 1.218 2.517 2.292 4.51 2.292 5.936 0 9.963-5.388 9.963-12.599C24.886 5.08 20.248 0 13.197 0z"/></symbol><symbol id="icon-twitter" viewBox="0 0 42 32"><path d="M42.016 3.792a18.124 18.124 0 01-4.95 1.27c1.78-1 3.146-2.584 3.79-4.468a18.1 18.1 0 01-5.476 1.96C33.81.982 31.568.002 29.09.002c-4.76 0-8.622 3.618-8.622 8.078 0 .634.076 1.252.224 1.842-7.164-.338-13.516-3.554-17.768-8.44a7.658 7.658 0 00-1.166 4.062c0 2.8 1.522 5.276 3.834 6.724a9.054 9.054 0 01-3.904-1.012v.104c0 3.914 2.97 7.178 6.914 7.92a9.392 9.392 0 01-3.892.14c1.096 3.206 4.28 5.544 8.052 5.61-2.95 2.166-6.666 3.456-10.706 3.456-.696 0-1.382-.038-2.056-.112 3.814 2.29 8.346 3.63 13.214 3.63 15.856 0 24.526-12.312 24.526-22.986 0-.352-.01-.698-.026-1.046a17.006 17.006 0 004.302-4.18z"/></symbol></defs></svg>